<?xml version="1.0" standalone="no"?>
<!DOCTYPE svg PUBLIC "-//W3C//DTD SVG 1.1//EN"
  "http://www.w3.org/Graphics/SVG/1.1/DTD/svg11.dtd">
<svg version="1.1" xmlns="http://www.w3.org/2000/svg" xmlns:xlink="http://www.w3.org/1999/xlink" width="3840" height="2160" viewBox="-1040.888888888889 -32 1889.7777777777778 1063" id="ccdiagram"><filter id="grayscale"><feColorMatrix type="matrix" values="0.3333 0.3333 0.3333 0 0 0.3333 0.3333 0.3333 0 0 0.3333 0.3333 0.3333 0 0 0 0 0 1 0"></feColorMatrix></filter><defs><style type="text/css">@import url('https://fonts.googleapis.com/css?family=Open+Sans:400,700|Inconsolata:400');</style></defs><g><g style="pointer-events: none;"><g><pattern id="gridPatternMinor" x="0" y="37" width="128" height="74" patternUnits="userSpaceOnUse"><path d="M 0 0 L 128 74" stroke="#eee" stroke-width="1"></path><path d="M 128 0 L 0 74" stroke="#eee" stroke-width="1"></path></pattern><polygon points="0 0, 768 444, -192 999, -960 555" fill="url(#gridPatternMinor)"></polygon></g><polygon points="-960 555, -960 565, -192 1009, -192 999" stroke-linejoin="round" stroke="#54626f" stroke-width="1" fill="#f9f9f9"></polygon><polygon points="-192 1009, 768 454, 768 444, -192 999" stroke-linejoin="round" stroke="#54626f" stroke-width="1" fill="#e2e2e2"></polygon></g><g pointer-events="auto"><g opacity="1"><g><g><polygon points="288 204, 608 389, 608 426, 32 759, -32 759, -352 574, -352 537, 224 204" fill="#ffffff" stroke-width="2" stroke="#818181"></polygon><polygon points="256 222, 576 407, 0 740, -320 555" fill="#e6e7e8" stroke-width="0" stroke="#818181"></polygon></g></g></g><g opacity="1"><g><g><polygon points="-352 222, -160 333, -160 370, -352 481, -416 481, -608 370, -608 333, -416 222" fill="#ffffff" stroke-width="2" stroke="#818181"></polygon><polygon points="-384 241, -192 352, -384 463, -576 352" fill="#e6e7e8" stroke-width="0" stroke="#818181"></polygon></g></g></g></g><g style="pointer-events: none;"><g><pattern id="gridPatternMajor" x="0" y="37" width="128" height="74" patternUnits="userSpaceOnUse"><path d="M 64 0 L 128 37 64 74 0 37 z" stroke="#54626f" stroke-width="1" fill="none"></path></pattern><polygon points="0 0, 768 444, -192 999, -960 555" fill="url(#gridPatternMajor)"></polygon></g></g><g pointer-events="auto"></g><g pointer-events="auto"></g><g></g><g pointer-events="auto"></g><g></g><g pointer-events="auto"></g><g pointer-events="auto"></g><g pointer-events="none"></g><g pointer-events="auto"><g id="31eb97cb-453b-40e2-8bf2-b163c554d4ef-24731257-a09d-4b2b-98f0-0c43a7f455e0"><g cursor="cell"><line x1="-368" y1="583" x2="-142" y2="591" stroke="red" stroke-width="8" opacity="0"></line><line x1="-368" y1="583" x2="-142" y2="591" stroke="#000000" stroke-width="2" stroke-linecap="round"></line><polygon points="-128 592, -152 584, -146 591, -153 598, -128 592" stroke-linejoin="round" fill="#000000" stroke="#000000" stroke-width="1"></polygon></g></g><g id="31eb97cb-453b-40e2-8bf2-b163c554d4ef-f8f02ec8-ff33-4cf2-a083-3244453d1803"><g cursor="cell"><line x1="-444" y1="539" x2="-418" y2="415" stroke="red" stroke-width="8" opacity="0"></line><line x1="-444" y1="539" x2="-418" y2="415" stroke="#000000" stroke-width="2" stroke-linecap="round"></line><polygon points="-416 407, -430 420, -418 417, -408 422, -416 407" stroke-linejoin="round" fill="#000000" stroke="#000000" stroke-width="1"></polygon></g></g><g id="e393584a-456b-40be-911e-71c8b174d6c5-86a6ddc9-b1fb-49aa-9aad-3a7e170a752b"><g cursor="cell"><line x1="-16" y1="546" x2="54" y2="505" stroke="red" stroke-width="8" opacity="0"></line><line x1="-16" y1="546" x2="54" y2="505" stroke="#000000" stroke-width="2" stroke-linecap="round"></line><polygon points="64 500, 38 505, 52 507, 55 514, 64 500" stroke-linejoin="round" fill="#000000" stroke="#000000" stroke-width="1"></polygon></g></g><g id="eb7d5620-0718-44e9-af85-13d57f22d9d8-eba9d155-837d-444b-9899-16e79e520efa"><g cursor="cell"><line x1="192" y1="444" x2="230" y2="422" stroke="red" stroke-width="8" opacity="0"></line><line x1="192" y1="444" x2="230" y2="422" stroke="#000000" stroke-width="2" stroke-linecap="round"></line><polygon points="240 416, 214 422, 228 423, 231 431, 240 416" stroke-linejoin="round" fill="#000000" stroke="#000000" stroke-width="1"></polygon></g></g><g id="932e2f10-a968-4f80-bb1b-fa879bb8affd-6e31b051-5789-4b41-a4b9-efa1f5d902a0"><g cursor="cell"><line x1="-604" y1="663" x2="-490" y2="598" stroke="red" stroke-width="8" opacity="0"></line><line x1="-604" y1="663" x2="-490" y2="598" stroke="#000000" stroke-width="2" stroke-linecap="round"></line><polygon points="-480 592, -506 597, -492 599, -489 607, -480 592" stroke-linejoin="round" fill="#000000" stroke="#000000" stroke-width="1"></polygon></g></g></g><g pointer-events="auto"><g opacity="1"><g id="570a56be-d0c8-4591-b36f-53925ad6575a" transform="translate(0 0)"><svg x="258" y="256" height="148.981" width="91.956" viewBox="0 0 24.33 39.418"><g transform="translate(240.35 -115.335)"><path d="M-240.082 146.018v4.445l6.973 4.025v-4.445z" fill="#d2d2d4" fill-rule="evenodd" stroke-width=".214"></path><path d="M-233.11 150.043l9.858-.003v4.445l-9.857.003z" fill="#d2d2d4" fill-rule="evenodd" stroke-width=".214"></path><path d="M-223.252 150.04l6.967-4.027v4.445l-6.967 4.028z" fill="#b8b8bb" fill-rule="evenodd" stroke-width=".214"></path><path d="M-223.252 150.04v4.445" fill="none" fill-rule="evenodd" stroke="#83838a" stroke-width=".267"></path><path d="M302.99-2468.894l-36.732 47.87-59.823 7.876-47.87-36.732-7.875-59.823 36.732-47.87 59.822-7.876 47.87 36.732z" fill="#848586" stroke="#83838a" stroke-width="2.151" transform="matrix(.0995 .07485 -.12957 .05747 -573.282 269.258)"></path><path d="M-240.082 139.12v4.445l6.973 4.025v-4.445z" fill="#d2d2d4" fill-rule="evenodd" stroke-width=".214"></path><path d="M-233.11 143.145l9.858-.003v4.445l-9.857.003z" fill="#d2d2d4" fill-rule="evenodd" stroke-width=".214"></path><path d="M-223.252 143.143l6.967-4.028v4.445l-6.967 4.028z" fill="#b8b8bb" fill-rule="evenodd" stroke-width=".214"></path><path d="M302.99-2468.894l-36.732 47.87-59.823 7.876-47.87-36.732-7.875-59.823 36.732-47.87 59.822-7.876 47.87 36.732z" fill="#848586" stroke="#83838a" stroke-width="2.151" transform="matrix(.0995 .07485 -.12957 .05747 -573.282 262.36)"></path><path d="M-240.082 132.222v4.445l6.973 4.025v-4.445z" fill="#d2d2d4" fill-rule="evenodd" stroke-width=".214"></path><path d="M-233.11 136.247l9.858-.003v4.445l-9.857.003z" fill="#d2d2d4" fill-rule="evenodd" stroke-width=".214"></path><path d="M-223.252 136.245l6.967-4.028v4.445l-6.967 4.028z" fill="#b8b8bb" fill-rule="evenodd" stroke-width=".214"></path><path d="M302.99-2468.894l-36.732 47.87-59.823 7.876-47.87-36.732-7.875-59.823 36.732-47.87 59.822-7.876 47.87 36.732z" fill="#848586" stroke="#83838a" stroke-width="2.151" transform="matrix(.0995 .07485 -.12957 .05747 -573.282 255.462)"></path><path d="M-240.082 125.324v4.445l6.973 4.025v-4.445z" fill="#d2d2d4" fill-rule="evenodd" stroke-width=".214"></path><path d="M-233.11 129.349l9.858-.003v4.445l-9.857.003z" fill="#d2d2d4" fill-rule="evenodd" stroke-width=".214"></path><path d="M-223.252 129.347l6.967-4.028v4.445l-6.967 4.028z" fill="#b8b8bb" fill-rule="evenodd" stroke-width=".214"></path><path d="M-223.252 129.347l-9.857.002-6.973-4.025-.003-5.694 6.967-4.028 9.857-.002 6.973 4.025.003 5.694z" fill="#ececed" stroke-width="2.151"></path><path d="M-240.082 125.324l6.964 4.074 9.866-.053 6.967-4.026M-233.118 129.398l.008 4.396M-223.252 129.345v4.445" fill="none" fill-rule="evenodd" stroke="#83838a" stroke-width=".267"></path><path d="M-240.085 119.63l.003 10.139 6.972 4.025 9.857-.003 6.966-4.027-.002-10.14-6.972-4.025-9.857.003z" fill="none" fill-rule="evenodd" stroke="#000000" stroke-width=".529"></path><path d="M-223.252 136.242v4.446M-233.11 136.247v4.445" fill="none" fill-rule="evenodd" stroke="#83838a" stroke-width=".267"></path><path d="M-240.082 132.222v4.445l6.973 4.025 9.857-.003 6.966-4.027.002-4.446-6.968 4.026-9.865.054z" fill="none" fill-rule="evenodd" stroke="#000000" stroke-width=".529"></path><path d="M-233.11 143.145v4.445M-223.252 143.141v4.446" fill="none" fill-rule="evenodd" stroke="#83838a" stroke-width=".267"></path><path d="M-240.082 139.12v4.445l6.973 4.025 9.857-.003 6.966-4.026.002-4.446-6.968 4.028-9.857.003z" fill="none" fill-rule="evenodd" stroke="#000000" stroke-width=".529"></path><path d="M-240.082 146.018v4.445l6.973 4.025 9.857-.003 6.967-4.026v-4.445l-6.967 4.026-9.857.003z" fill="none" fill-rule="evenodd" stroke="#000000" stroke-width=".529"></path><path d="M-233.11 150.043v4.445" fill="none" fill-rule="evenodd" stroke="#83838a" stroke-width=".267"></path><circle cx="-9.268" cy="254.217" fill="#4286c5" r="5.832" stroke-width=".534" transform="scale(1.22475 .7071) rotate(45)"></circle><path d="M-227.78 122.24q.75.433 1.536.73.788.298 1.43.362l-.538.31q-.218.127-.73.046-.513-.08-1.181-.34-.669-.26-1.327-.64-.657-.38-1.108-.766-.45-.386-.59-.681-.138-.296.08-.422l.537-.31q.111.37.626.825.516.454 1.265.887zm-2.428 1.403q.749.432 1.536.73.788.297 1.43.361l-.538.31q-.218.127-.73.046-.513-.08-1.182-.34-.668-.26-1.326-.64-.657-.38-1.108-.766-.45-.386-.59-.681-.139-.296.08-.422l.537-.31q.11.37.626.825.516.454 1.265.887zm1.214-.701q.749.432 1.536.73.788.297 1.43.361l-.538.31q-.218.126-.73.046-.513-.08-1.181-.34-.669-.26-1.327-.64-.657-.38-1.108-.766-.45-.386-.59-.681-.138-.296.08-.422l.537-.31q.111.37.626.825.516.454 1.265.887zm3.642-2.103q.657.38 1.108.766.45.386.59.681.139.296-.08.422l-.404.234q-.218.126-.73.045-.513-.08-1.181-.34-.67-.26-1.327-.64-.657-.38-1.108-.766-.45-.386-.59-.681-.139-.296.08-.422l.404-.234q.218-.126.73-.045.513.08 1.182.34.668.26 1.326.64z" fill="#ffffff" stroke-width=".267"></path></g></svg></g></g><g opacity="1"><g id="eb7d5620-0718-44e9-af85-13d57f22d9d8" transform="translate(0 0)"><svg x="96" y="386" height="113.438" width="96" viewBox="0 0 25.4 30.014"><g transform="translate(412.599 -86.957)"><g fill-rule="evenodd"><path d="M-412.333 102.348v4.786l8.29 4.785h8.289l8.29-4.785v-4.786l-8.29-4.786h-8.29z" fill="#3c3c3c"></path><path d="M-395.754 111.92l8.29-4.786v4.785l-8.29 4.786z" fill="#090909"></path><path d="M-404.044 111.92h8.29v4.785h-8.29z" fill="#232323"></path><path d="M-412.333 107.134v4.785l8.29 4.786v-4.786z" fill="#232323"></path><path d="M-412.333 107.134l8.29 4.785h8.289l8.29-4.785M-404.044 111.92v4.785M-395.754 111.92v4.785" fill="none" stroke="#a2a2a2" stroke-width=".26588"></path><path d="M-412.333 102.348v9.571l8.29 4.786h8.289l8.29-4.786v-9.571l-8.29-4.786h-8.29z" fill="none" stroke="#000000" stroke-width=".53176"></path></g><path d="M-412.333 97.178v4.786l8.29 4.786h8.289l8.29-4.786v-4.786l-8.29-4.786h-8.29z" fill="#3c3c3c" fill-rule="evenodd" stroke-width=".332"></path><path d="M-395.754 106.75l8.29-4.786v4.786l-8.29 4.786z" fill="#090909" fill-rule="evenodd" stroke-width=".332"></path><path d="M-404.044 106.75h8.29v4.786h-8.29z" fill="#232323" fill-rule="evenodd" stroke-width=".332"></path><path d="M-412.333 101.964v4.786l8.29 4.786v-4.786z" fill="#232323" fill-rule="evenodd" stroke-width=".332"></path><path d="M-412.333 101.964l8.29 4.786h8.289l8.29-4.786M-404.044 106.75v4.786M-395.754 106.75v4.786" fill="none" fill-rule="evenodd" stroke="#a2a2a2" stroke-width=".266"></path><path d="M-412.333 97.178v9.572l8.29 4.786h8.289l8.29-4.786v-9.572l-8.29-4.786h-8.29z" fill="none" fill-rule="evenodd" stroke="#000000" stroke-width=".532"></path><path d="M-412.333 92.01v4.785l8.29 4.786h8.289l8.29-4.786v-4.786l-8.29-4.786h-8.29z" fill="#3c3c3c" fill-rule="evenodd" stroke-width=".332"></path><path d="M-395.754 101.58l8.29-4.785v4.786l-8.29 4.786z" fill="#090909" fill-rule="evenodd" stroke-width=".332"></path><path d="M-404.044 101.58h8.29v4.787h-8.29z" fill="#232323" fill-rule="evenodd" stroke-width=".332"></path><path d="M-412.333 96.795v4.786l8.29 4.786v-4.786z" fill="#232323" fill-rule="evenodd" stroke-width=".332"></path><path d="M-412.333 96.795l8.29 4.786h8.289l8.29-4.786M-404.044 101.58v4.787M-395.754 101.58v4.787" fill="none" fill-rule="evenodd" stroke="#a2a2a2" stroke-width=".266"></path><path d="M-412.333 92.01v9.57l8.29 4.787h8.289l8.29-4.786v-9.572l-8.29-4.786h-8.29z" fill="none" fill-rule="evenodd" stroke="#000000" stroke-width=".532"></path><circle cx="-136.478" cy="325.284" fill="#f4b934" r="5.801" stroke-width=".286" transform="scale(1.22475 .7071) rotate(45)"></circle><g style="line-height: 0%;"><path d="M-399.242 93.57l.48-.601q.222-.275.177-.448-.04-.17-.467-.416l-.507-.293 1.065-.614.937.541q.825.476.92.934.1.46-.417 1.114l-3.452 4.39-1.622-.937 1.654-2.121-3.729.923-1.622-.936z" fill="#ffffff" font-family="Droid Serif" font-size="9.971" stroke-width=".266" style="line-height: 1.25;"></path></g></g></svg></g></g><g opacity="1"><g id="91f4b0d5-b433-4d97-9eff-cccdcf9a5246" transform="translate(0 0)"><svg x="-435" y="268" height="115.695" width="100.625" viewBox="0 0 26.624 30.611"><g fill-rule="evenodd"><path d="M13.312.306v15l12.99-7.5z" fill="#4286c5" stroke-width=".265"></path><path d="M.322 7.806l12.99 7.5v-15z" fill="#26527b" stroke-width=".265"></path><path d="M13.312.306v15" fill="none" stroke="#b7d1e9" stroke-width=".265"></path><path d="M13.312 15.306l12.99-7.5-6.495 18.75-6.495 3.75z" fill="#26527b" stroke-width=".265"></path><path d="M.322 7.806l12.99 7.5v15l-6.495-3.75z" fill="#326ca2" stroke-width=".265"></path><path d="M.322 7.806l12.99 7.5 12.99-7.5-12.99 7.5v15" fill="none" stroke="#deeaf5" stroke-width=".265"></path><path d="M13.312.306l-12.99 7.5 6.495 18.75 6.495 3.75 6.495-3.75 6.495-18.75z" fill="none" stroke="#000000" stroke-width=".529"></path></g></svg></g></g><g opacity="1"><g id="e393584a-456b-40be-911e-71c8b174d6c5" transform="translate(0 0)"><svg x="-126" y="502" height="108.05" width="123" viewBox="0 0 32.544 28.588"><path d="M10.115 6.02v14.218l7.873-4.318V1.474z" fill="#090909" fill-rule="evenodd" stroke="#a2a2a2" stroke-width=".268"></path><path d="M.265 2.228l9.85 3.791v14.219l-9.85-8.531z" fill="#232323" fill-rule="evenodd" stroke="#a2a2a2" stroke-width=".265"></path><path d="M10.115 6.02l7.873-4.546L3.548.332.265 2.228z" fill="#3c3c3c" fill-rule="evenodd" stroke="#a2a2a2" stroke-width=".265"></path><path d="M.265 11.707l9.85 8.53 7.873-4.317V1.474L3.392.271.265 2.076z" fill="none" fill-rule="evenodd" stroke="#000000" stroke-width=".529"></path><path d="M22.429 3.65L14.22 8.39l14.828 10.397 3.231-1.866z" fill="#3c3c3c" fill-rule="evenodd" stroke="#a2a2a2" stroke-width=".268"></path><path d="M14.22 8.39V22.61l14.777 5.687.051-9.509z" fill="#232323" fill-rule="evenodd" stroke="#a2a2a2" stroke-width=".265"></path><path d="M29.048 18.787l3.231-1.866V26.4l-3.282 1.897z" fill="#090909" fill-rule="evenodd" stroke="#a2a2a2" stroke-width=".265"></path><path d="M22.429 3.65L14.22 8.39V22.61l14.777 5.687 3.282-1.897v-9.478z" fill="none" fill-rule="evenodd" stroke="#000000" stroke-width=".529"></path><path d="M21.09 20.43q.163.375.048.64t-.44.265q-.326 0-.671-.265-.346-.265-.509-.64-.162-.374-.047-.639t.44-.265q.326 0 .671.265.346.265.509.64zm1.573-1.808q.08.184.022.318-.059.134-.218.134-.16 0-.335-.134-.176-.135-.255-.318-.082-.187-.024-.32.058-.132.22-.132.163 0 .336.132.173.133.254.32zm1.573 3.617q.08.184.021.318-.058.134-.218.134t-.335-.134q-.175-.135-.255-.318-.081-.187-.023-.32.057-.132.22-.132t.335.132q.173.133.255.32zm-1.826-1.487l-.284-.654q-.016-.035-.052-.068-.036-.034-.065-.038l-.513-.084q-.088-.124-.215-.269.03-.17.1-.406.006-.035-.01-.07-.018-.043-.05-.068-.117-.106-.39-.316-.275-.21-.333-.21-.034 0-.054.025l-.215.317q-.143-.067-.284-.11-.2-.38-.309-.547-.058-.085-.129-.085h-.571q-.034 0-.05.027-.016.026-.004.062l.164.54q-.089.036-.182.11l-.5-.315q-.032-.024-.071-.024-.034 0-.053.028-.238.47-.196.565.014.032.05.067.053.05.208.187.155.138.238.216-.003.155.018.29l-.43.084q-.029.004-.038.034-.008.03.008.069l.285.653q.015.036.051.069.036.033.065.037l.513.085q.088.124.215.268-.03.17-.1.407-.005.038.01.07.018.043.052.07.113.107.388.315.275.208.333.209.034 0 .054-.025l.215-.318q.132.064.286.113.2.382.307.544.058.085.129.085h.571q.034 0 .05-.027.016-.026.004-.062l-.164-.54q.089-.035.183-.11l.499.315q.035.024.072.024.033 0 .052-.028.238-.47.196-.565-.014-.032-.05-.067-.062-.057-.212-.19-.15-.135-.23-.213-.004-.169-.022-.29l.431-.08q.028-.007.036-.038.008-.03-.008-.068zm1.147-1.883l-.215-.494q-.025-.057-.505-.11-.079-.095-.172-.183-.017-.4-.056-.488-.006-.014-.023-.024-.483-.251-.49-.251-.024 0-.069.166-.044.166-.055.24-.064-.007-.095-.007t-.09.007q-.075-.074-.264-.24-.188-.166-.213-.166-.006 0-.272.25-.008.011-.002.025.039.088.369.488-.017.088-.012.183-.435.053-.41.11l.215.494q.024.057.505.11.084.102.172.184.017.399.055.487.006.014.023.025l.138.07.234.12q.11.057.117.057.024 0 .07-.164.045-.164.056-.239.064.007.095.007.03 0 .089-.007.266.251.455.396l.021.007q.012 0 .273-.247.008-.01.002-.025-.038-.088-.368-.487.017-.082.012-.184.435-.053.41-.11zm1.572 3.617l-.215-.494q-.024-.057-.505-.11-.078-.095-.172-.184-.017-.399-.055-.487-.006-.014-.023-.025-.484-.25-.49-.25-.025 0-.069.165-.044.166-.055.24-.065-.006-.096-.006-.03 0-.089.007-.075-.075-.264-.24-.189-.166-.213-.166-.006 0-.272.25-.008.01-.002.025.038.088.369.487-.017.088-.013.184-.434.053-.41.11l.215.494q.025.057.505.11.085.102.173.183.016.4.055.488.006.014.023.024l.138.07.233.121q.111.057.117.057.025 0 .07-.165.045-.164.056-.238.065.007.095.007.031 0 .09-.007.265.25.454.396l.022.007q.012 0 .273-.248.008-.01.002-.024-.038-.088-.369-.488.017-.08.013-.183.434-.053.41-.11z" fill="#f4b934" stroke-width=".265"></path></svg></g></g><g opacity="1"><g id="31eb97cb-453b-40e2-8bf2-b163c554d4ef" transform="translate(0 0)"><svg x="-448" y="444" height="148.142" width="93" viewBox="0 0 24.606 39.196"><g transform="translate(-90.671 -137.288)"><path d="M91.985 141.821l14.632 8.448 7.316-4.224-14.632-8.447z" fill="#ececed" fill-rule="evenodd" stroke-width=".268"></path><path d="M91.985 165.958l-1.045 1.81v-1.207z" fill="#d2d2d4" fill-rule="evenodd" stroke-width=".268"></path><path d="M91.985 165.958l14.632 8.447-1.046 1.81-14.566-8.56zM106.617 174.405l-1.046 1.81h2.09z" fill="#d2d2d4" fill-rule="evenodd" stroke-width=".268"></path><path d="M91.985 141.821v24.137l14.632 8.447V150.27z" fill="#d2d2d4" fill-rule="evenodd" stroke-width=".268"></path><path d="M106.617 174.405l1.045 1.81 7.316-4.223v-1.207l-1.045-.603z" fill="#b8b8bb" fill-rule="evenodd" stroke-width=".268"></path><path d="M106.617 150.27l7.316-4.225v24.137l-7.316 4.223z" fill="#b8b8bb" fill-rule="evenodd" stroke-width=".268"></path><g fill="none" fill-rule="evenodd" stroke="#83838a"><path d="M113.933 170.182l-7.316 4.223-14.632-8.447-1.045 1.81M91.985 141.821l14.632 8.448 7.316-4.224M106.617 150.27v24.135M105.571 176.216l1.046-1.81 1.045 1.81M113.933 170.182l1.045 1.81" stroke-width=".26818"></path></g><path d="M90.94 167.768v-1.207l1.045-.603V141.82l7.316-4.223 14.632 8.447v24.137l1.045.603v1.207l-7.316 4.224h-2.09z" fill="none" fill-rule="evenodd" stroke="#000000" stroke-width=".529"></path><ellipse cx="141.009" cy="74.394" fill="#4286c5" rx="6.047" ry="4.714" stroke-width=".278" transform="matrix(.19572 .98066 .96381 .26658 0 0)"></ellipse><ellipse cx="141.009" cy="74.394" fill="#ffffff" rx="5.037" ry="3.927" stroke-width=".278" transform="matrix(.19572 .98066 .96381 .26658 0 0)"></ellipse><path d="M99.03 153.239c-3.067 2.89-1.034 7.41.27 9.702" fill="none" fill-rule="evenodd" stroke="#4286c5" stroke-width=".51973284"></path><g transform="translate(374.17 163.896) scale(.26818)"><ellipse cx="272.14" cy="-1124.64" fill="#4286c5" rx="3.335" ry="2.648" transform="matrix(.19572 .98066 .96381 .26658 0 0)"></ellipse><ellipse cx="290.38" cy="-1128.297" fill="#4286c5" rx="3.687" ry="2.835" transform="matrix(.19572 .98066 .96381 .26658 0 0)"></ellipse><ellipse cx="290.282" cy="-1113.221" fill="#4286c5" rx="3.51" ry="2.717" transform="matrix(.19572 .98066 .96381 .26658 0 0)"></ellipse><path d="M-1033.087-41.48c4.26 21.344 17.38 30.943 23.61 33.65M-1039.896-25.075c12.675 15.122 22.864 16.4 30.106 8.948" fill="none" fill-rule="evenodd" stroke="#4286c5" stroke-width="1.938"></path></g></g></svg></g></g><g opacity="1"><g id="932e2f10-a968-4f80-bb1b-fa879bb8affd" transform="translate(0 0)"><svg x="-664" y="598" height="95.068" width="63" viewBox="0 0 16.669 25.153"><path d="M16.668 22.903q0 1.64-.864 2.091-.865.451-2.297-.376L3.161 18.645q-1.433-.827-2.297-2.276Q.001 14.921 0 13.28q0-.723.042-1.39.042-.666.166-1.394.124-.727.313-1.302.19-.575.51-1.039.319-.464.733-.683.414-.22 1.012-.147.598.073 1.32.49.107.06.497.58.391.52.882 1.165.491.646 1.279 1.394.788.75 1.58 1.207.793.458 1.58.618.788.161 1.28.083.49-.079.881-.147.39-.069.497-.007.722.416 1.32 1.035.598.619 1.013 1.315.414.697.734 1.531t.509 1.627q.19.793.313 1.664.124.872.166 1.586.042.713.042 1.438zM12.88 8.51q0 2.173-1.332 2.942-1.332.769-3.214-.318-1.882-1.086-3.214-3.393Q3.79 5.434 3.79 3.26q0-2.173 1.331-2.942 1.332-.77 3.214.317t3.214 3.394q1.332 2.306 1.332 4.48z" fill="#000" stroke="#000000" stroke-width=".268"></path></svg></g></g></g><g pointer-events="auto"></g><g pointer-events="auto"></g><g pointer-events="auto"><g opacity="1"><g id="81b9d02e-ceba-40e5-9008-9df055973c33"><svg x="-142" y="548" overflow="visible"><text stroke="#ffffff" stroke-width="4" font-family="Open Sans" y="36.5" font-size="25pt" fill="#f5b720" font-weight="bold" transform="matrix(0.707 0.409 -0.707 0.409 0 0)" xml:space="preserve"><tspan x="8" dy="0">API Gateway</tspan></text><text font-family="Open Sans" y="36.5" font-size="25pt" fill="#f5b720" font-weight="bold" transform="matrix(0.707 0.409 -0.707 0.409 0 0)" xml:space="preserve"><tspan x="8" dy="0">API Gateway</tspan></text></svg></g></g><g opacity="1"><g id="856403f3-9aa3-4d12-bf4e-fb176884f3a7"><svg x="-501" y="530" overflow="visible"><text stroke="#ffffff" stroke-width="4" font-family="Open Sans" y="36.5" font-size="25pt" fill="#f5b720" font-weight="bold" transform="matrix(0.707 0.409 -0.707 0.409 0 0)" xml:space="preserve"><tspan x="8" dy="0">CloudFront</tspan></text><text font-family="Open Sans" y="36.5" font-size="25pt" fill="#f5b720" font-weight="bold" transform="matrix(0.707 0.409 -0.707 0.409 0 0)" xml:space="preserve"><tspan x="8" dy="0">CloudFront</tspan></text></svg></g></g><g opacity="1"><g id="4c730077-089c-491a-8ec2-465a3ccd1bd7"><svg x="-480" y="333" overflow="visible"><text stroke="#ffffff" stroke-width="4" font-family="Open Sans" y="36.5" font-size="25pt" fill="#f5b720" font-weight="bold" transform="matrix(0.707 0.409 -0.707 0.409 0 0)" xml:space="preserve"><tspan x="8" dy="0">S3 (SvelteKit)</tspan></text><text font-family="Open Sans" y="36.5" font-size="25pt" fill="#f5b720" font-weight="bold" transform="matrix(0.707 0.409 -0.707 0.409 0 0)" xml:space="preserve"><tspan x="8" dy="0">S3 (SvelteKit)</tspan></text></svg></g></g><g opacity="1"><g id="bc8ecf51-a7a1-4685-8af7-9cda293e0926"><svg x="64" y="463" overflow="visible"><text stroke="#ffffff" stroke-width="4" font-family="Open Sans" y="36.5" font-size="25pt" fill="#f5b720" font-weight="bold" transform="matrix(0.707 0.409 -0.707 0.409 0 0)" xml:space="preserve"><tspan x="8" dy="0">Lambda (GO)</tspan></text><text font-family="Open Sans" y="36.5" font-size="25pt" fill="#f5b720" font-weight="bold" transform="matrix(0.707 0.409 -0.707 0.409 0 0)" xml:space="preserve"><tspan x="8" dy="0">Lambda (GO)</tspan></text></svg></g></g><g opacity="1"><g id="b3541d90-8e58-4c89-8448-6160ed32080c"><svg x="208" y="361" overflow="visible"><text stroke="#ffffff" stroke-width="4" font-family="Open Sans" y="36.5" font-size="25pt" fill="#f5b720" font-weight="bold" transform="matrix(0.707 0.409 -0.707 0.409 0 0)" xml:space="preserve"><tspan x="8" dy="0">DynamoDB</tspan></text><text font-family="Open Sans" y="36.5" font-size="25pt" fill="#f5b720" font-weight="bold" transform="matrix(0.707 0.409 -0.707 0.409 0 0)" xml:space="preserve"><tspan x="8" dy="0">DynamoDB</tspan></text></svg></g></g><g opacity="1"><g id="390f5d17-f15a-4fdf-9e30-4dbf9dd77bc3" transform="translate(0 0)"><svg x="-192" y="666" overflow="visible"><text stroke="#ffffff" stroke-width="4" font-family="Open Sans" y="36.5" font-size="25pt" fill="#f5b720" font-weight="bold" transform="matrix(0.707 0.409 -0.707 0.409 0 0)" xml:space="preserve"><tspan x="8" dy="0">Backend</tspan></text><text font-family="Open Sans" y="36.5" font-size="25pt" fill="#f5b720" font-weight="bold" transform="matrix(0.707 0.409 -0.707 0.409 0 0)" xml:space="preserve"><tspan x="8" dy="0">Backend</tspan></text></svg></g></g></g><g pointer-events="auto"><g></g><g></g><g></g><g></g><g></g><g></g><g></g><g></g><g></g><g></g></g></g></svg>